<svg xmlns="http://www.w3.org/2000/svg" width="79.723" height="54.413" viewBox="0 0 79.723 54.413">
  <g id="diet_ico" transform="translate(-1114.493 -644.667)">
    <path id="Path_6999" data-name="Path 6999" d="M255.383,50.067c-4.1-.62-8.524,1.553-9.948,5.423a8.763,8.763,0,0,0-3.92-4.357,9.437,9.437,0,0,0-8.827-.336c-2.39,1.007-4.266,3.653-5.259,5.955-1.256,2.908-.621,6.469.16,9.418a.441.441,0,0,0,.85-.235c-1.3-4.92-1.087-10.35,3.4-13.644a8.9,8.9,0,0,1,8.072-1.022c2.454,1.121,4.9,3.314,5.083,6.18a.441.441,0,0,0,.881,0c.462-5.248,6.9-8.051,11.414-5.912,4.8,2.273,6.818,8.708,5.24,13.586-1,3.078-4.947,2.312-7.548,2.328-1.476.009-2.953.024-4.429.011-.2,0-1.016,0-.992.015a11.883,11.883,0,0,1-.97-2.265.443.443,0,0,0-.866.117c-.289,2.285-.889,4.506-1.36,6.754-.458-3.779-.646-7.59-1.276-11.35-.073-.435-.757-.406-.85,0l-1.82,7.874q-.406-1.828-.813-3.656c-.09-.405-.782-.435-.85,0-.094.605-.245,2.252-.655,2.539-.28.2-1.332-.008-1.7-.011l-4.8-.031c-1.748-.011-4.494-.359-4.416,2.262.04,1.374,1.312,2.765,2.125,3.782a24.322,24.322,0,0,0,4.066,3.9,100.584,100.584,0,0,0,9.738,6.244.446.446,0,0,0,.445,0,48.774,48.774,0,0,0,15.009-12.786c.35-.439-.269-1.067-.623-.623a46.266,46.266,0,0,1-9.6,9.4c-1.182.818-3.767,3.169-5.237,2.966-.691-.1-1.643-.978-2.247-1.336-.925-.548-1.849-1.1-2.76-1.671a41.546,41.546,0,0,1-5.736-4.185c-1.059-.951-6.347-6.014-2.863-7.092,1.316-.407,3.464.023,4.844.032s2.736.018,4.1.026a.452.452,0,0,0,.425-.324c.105-.335.2-.667.3-1l.815,3.665a.444.444,0,0,0,.85,0l1.729-7.483c.5,3.917.675,7.871,1.328,11.77.09.535.81.328.866-.117.335-2.659,1.09-5.233,1.576-7.862a1.97,1.97,0,0,0,1.515,1.311,39.876,39.876,0,0,0,6.351-.011c1.856-.013,4.32.4,5.869-.852,1.343-1.086,1.612-3.009,1.753-4.619C264.3,57.408,261.305,50.962,255.383,50.067Z" transform="translate(887.776 594.802)" fill="red"/>
    <path id="Path_6996" data-name="Path 6996" d="M82.833,152.288a10.344,10.344,0,0,0-6.293-.209c.121-.13.256-.24.37-.379a11.108,11.108,0,0,0,1.9-10.181.654.654,0,0,0-.087-.152.572.572,0,0,0-.645-.562,13.257,13.257,0,0,0-11.4,9.136A19.441,19.441,0,0,0,60.047,141a.534.534,0,0,0-.575-.071.568.568,0,0,0-.058.032.584.584,0,0,0-.113.084.592.592,0,0,0-.082.061,11.21,11.21,0,0,0-2.026,4.492.614.614,0,0,0,.142.6.649.649,0,0,0,.336.241,11.431,11.431,0,0,1,7.688,7.924c-4.221-.7-7.816-3.369-12.383-2.8a12.531,12.531,0,0,0-9.664,7.543c-4.719,10.2.723,22.439,7.38,30.47,3.487,4.205,6.727,3.748,11.5,2.162,3.461-1.149,5.809-.486,9.176.359a15.235,15.235,0,0,0,5.9.651c4.637-.731,7.629-6.368,9.3-10.219,2.457-5.671,4.354-11.494,4.173-17.744C90.587,159.61,87.92,154.22,82.833,152.288Zm-5.249-10.05a9.629,9.629,0,0,1-2.083,9c-2.034,2.077-5.165,2.778-7.99,3.185a.647.647,0,0,0,.024-.18A11.623,11.623,0,0,1,77.584,142.238Zm-18.907,3.131a9.884,9.884,0,0,1,1.167-2.8,17.528,17.528,0,0,1,5.793,8.778A12.845,12.845,0,0,0,58.677,145.369Zm21.655,44.219c-4.547,4.247-9.609-.269-14.7-.058-2.434.1-4.578,1.376-6.9,1.953-4.15,1.033-6.6-1.965-8.662-5.1-3.488-5.287-6.714-11.016-7.126-17.47s2.4-14.573,9.569-15.9c5.134-.95,9.064,2.479,13.943,2.848a.626.626,0,0,0,.293.026,14.932,14.932,0,0,0,4.132-.751,17.118,17.118,0,0,0,1.906-.626c2.891-1,5.759-2.036,8.767-1.216,8.17,2.231,8.655,12.393,7.108,19.18C87.34,178.3,84.782,185.433,80.332,189.588Z" transform="translate(1103.467 506.198)" fill="#4c843f"/>
    <path id="Path_6997" data-name="Path 6997" d="M54.164,157.34c-4.616,1.9-6.949,7.719-6.171,12.411.144.866,1.462.5,1.319-.363-.641-3.87,1.349-9.137,5.217-10.729C55.329,158.329,54.978,157.005,54.164,157.34Z" transform="translate(1103.348 505.887)" fill="#4c843f"/>
    <path id="Path_6998" data-name="Path 6998" d="M48.908,172.871a.684.684,0,0,0,0,1.367A.684.684,0,0,0,48.908,172.871Z" transform="translate(1103.34 505.594)" fill="#4c843f"/>
  </g>
</svg>
