<svg xmlns="http://www.w3.org/2000/svg" width="62.773" height="66.035" viewBox="0 0 62.773 66.035">
  <g id="medical_ico" transform="translate(-1114 -640)">
    <path id="ic_favorite_24px" d="M14.675,26.258l-1.838-1.673C6.309,18.666,2,14.762,2,9.971A6.9,6.9,0,0,1,8.971,3a7.59,7.59,0,0,1,5.7,2.649A7.59,7.59,0,0,1,20.378,3a6.9,6.9,0,0,1,6.971,6.971c0,4.791-4.309,8.695-10.837,14.626Z" transform="translate(1141.335 644.984)" fill="none" stroke="red" stroke-width="1"/>
    <path id="Path_26" data-name="Path 26" d="M637.683,403.765c3.871-.408,7.636-2.442,10.889-6a2.286,2.286,0,0,0,.511-1.934c4.374-5.289,7.018-12.514,7.018-18.112,0-8.648-4.067-9.563-10.987-10.988v-.1a2.7,2.7,0,0,0-2.341-1.323,2.444,2.444,0,1,0,0,4.884,2.076,2.076,0,0,0,1.529-.611l.1.1c6.716,1.425,8.448,1.732,8.448,8.038,0,4.886-2.44,11.5-6.309,16.282a2.4,2.4,0,0,0-1.733.711c-1.928,2.136-5.082,4.681-8.748,4.681-3.765,0-6.815-2.544-8.75-4.578a2.516,2.516,0,0,0-1.732-.813c-3.863-4.785-6.408-11.4-6.408-16.282,0-6.306,1.83-6.613,8.547-8.038v-.1a2.311,2.311,0,0,0,1.627.611A2.447,2.447,0,1,0,627,366.626h-.1c-6.814,1.526-10.985,2.341-10.985,11.09,0,5.6,2.642,12.823,7.115,18.213a2.079,2.079,0,0,0,.512,1.833c3.254,3.459,6.92,5.494,10.685,6l-.106,10.987c0,7.529-6.61,13.635-14.652,13.635s-14.547-6.106-14.547-13.635v-9.663c4.683-.713,8.245-4.376,8.245-8.954,0-5.087-4.479-9.157-9.975-9.157-5.392,0-9.865,4.07-9.865,9.157,0,4.578,3.66,8.241,8.236,8.954v9.663c0,9.159,8.042,16.587,17.907,16.587,9.976,0,18.01-7.428,18.01-16.587V403.765Z" transform="translate(520.673 274.697)" fill="#6c6c6a" fill-rule="evenodd"/>
    <path id="Path_27" data-name="Path 27" d="M602.808,389.91h0a4.672,4.672,0,0,1,4.769,4.591,4.757,4.757,0,0,1-4.793,4.668,4.69,4.69,0,0,1-4.769-4.693,4.607,4.607,0,0,1,4.793-4.566Z" transform="translate(521.307 275.638)" fill="#67cdfd" fill-rule="evenodd"/>
  </g>
</svg>
