<?xml version="1.0" encoding="utf-8"?>
<!-- Generator: Adobe Illustrator 23.1.0, SVG Export Plug-In . SVG Version: 6.00 Build 0)  -->
<svg version="1.1" id="logo_1_" xmlns="http://www.w3.org/2000/svg" xmlns:xlink="http://www.w3.org/1999/xlink" x="0px" y="0px"
	 viewBox="0 0 532.3 295.7" style="enable-background:new 0 0 532.3 295.7;" xml:space="preserve">
<style type="text/css">
	.st0{fill:#F68B1F;}
	.st1{fill-rule:evenodd;clip-rule:evenodd;fill:#897D7A;}
	.st2{fill-rule:evenodd;clip-rule:evenodd;fill:#999897;}
	.st3{fill-rule:evenodd;clip-rule:evenodd;fill:#F68B1F;}
	.st4{fill:#C8C8C8;}
	.st5{fill:#C2C2C2;}
	.st6{fill:#A8A8A8;}
</style>
<g id="_x32________x2B__Layer_5_copy_2_xA0_Image_1_">
	<g id="O2_____Ftt__x2B__Layer_5_xA0_Clipping_Path_1_">
		<g>
			<path class="st0" d="M291.5,204.6h26.7V141h43.4v-25.9h-43.4V89.4h43.4V63.2h-70.1V204.6z M499.4,61.4h-26.2V100h-13.4v22.6h13.4
				v82h26.2v-82h15.6V100h-15.6V61.4z"/>
		</g>
	</g>
	<g id="Shape_2_2_">
		<g>
			<path class="st1" d="M499,54.3c-10.8-20.2-22.9-27.9-27.3-30.5c-4.4-2.6-9.1,0.9-12.8,2.6c-3.7,1.7-2.6,5.2-2.6,5.2
				s0.7,2.3,2.1,6c3.6,6,8.3,2.5,11.1,0.9c2.8-1.6,2.6-4.4,2.6-6c0-1.6,0.1-1.8,1.3-0.4c4.2,3.7,6.1,11,9.8,18.5
				c3.7,7.5-1,11.2-10.6,8.6c-9.7-2.6-16.1,1.5-19.2,3.4c-3.1,1.9-2.9,4.1-11.9,4.3c-9.1,0.2-12.2,1.3-22.6,16.3
				c-16.1,28.6-16.3,52.8-12.4,68.7c6.8,25.6,43,60.3,57.8,84.1c15.6,25.2,16.7,54.6,16.7,54.6c5.7-49.8-29.2-90.2-48.6-127.6
				c-19.3-37.4,1.8-62,4.7-68.3c2.9-6.3,7.1-11.9,19.6-12c12.5-0.1,14.3-3.5,20.4-7.7c6.1-4.2,12.2-4.1,15.3-4.7
				S504.4,65.3,499,54.3z"/>
		</g>
	</g>
	<g id="Shape_3_2_">
		<g>
			<path class="st2" d="M399.7,120.1c10-38.8,12.4-45.3,4.3-50.7c-8.1-5.4-26.4,3.2-35.3,36.1c0,0,19.2-30,28.5-27.1
				c8.6,3.2-3.8,28.6-10.2,47.7c-6.4,19.1-12.5,40.4,15.3,68.3c15.1,14.6,32.6,21.3,47.7,34.4C431.2,207.9,380.6,176.6,399.7,120.1z
				"/>
		</g>
	</g>
	<g id="Ellipse_2_2_">
		<g>
			<ellipse class="st3" cx="421.8" cy="31" rx="22.8" ry="23"/>
		</g>
	</g>
	<path class="st4" d="M139.8,251c-62,0-112.2-50.2-112.2-112.2S77.8,26.6,139.8,26.6c27.4,0,52.5,9.8,71.9,26.1
		c5.1-0.8,10.2-0.4,15.3-0.6c3.6-0.1,7,0.8,10.5,1.8c-23.7-27.4-58.8-44.8-97.9-44.8C68.1,9.2,10.2,67.2,10.2,138.6
		S68.1,268,139.6,268c47.2,0,88.5-25.2,111.1-63c-6.8,0-13.5,0-20.3,0C209.9,232.9,177,251,139.8,251z"/>
	<path class="st5" d="M238.9,72.7c1.8,3.3,3.5,6.8,5,10.3C243.2,79,241.5,75.5,238.9,72.7z"/>
	<g>
		<path class="st6" d="M225.8,166.5c2.3-2,4.6-4.1,6.8-6.1c1.7-1.6,3.4-3.1,5.1-4.8c2.5-2.4,5-4.9,7.5-7.4c2.2-2.2,4.5-4.3,6.7-6.5
			c1.8-1.7,3.5-3.5,5.1-5.4c3.1-3.8,5.6-8,8.1-12.3c1-1.6,1.7-3.3,2.4-5.1c1.8-4.7,2.6-9.7,2.8-14.7c0.1-3.2-0.5-6.3-0.7-9.5
			c-0.2-5-1.7-9.7-3.5-14.3c-1.5-3.8-3.4-7.3-6.1-10.3c-2.6-2.9-4.8-6.1-7.8-8.5c-3.8-3-8-5.5-12.8-7c-0.6-0.2-1.3-0.4-1.9-0.6
			c-3.4-1-6.9-1.9-10.5-1.8c-5.1,0.2-10.2-0.3-15.3,0.6c-0.2,0-0.4,0-0.5,0.1c-5.3,1-10.4,2.7-15,5.3c-5,2.8-9.4,6.5-13,11
			c-3.5,4.3-6.3,9-8,14.3c-1.2,3.7-2.2,7.4-2.9,11.1c-0.7,3.9-0.8,8-1.1,12c9.4,0,18.3,0,27.2,0c0.5-5.1,0.8-10.2,2.7-15
			c2-4.8,4.8-8.7,9.4-11.3c3.8-2.1,7.8-2.7,12.1-2.6c5.1,0.1,9.8,1.9,13.6,5.1c0.8,0.6,1.4,1.3,2.1,2c2.3,2.6,3.9,5.8,4.6,9.4
			c0.1,0.4,0.2,0.8,0.2,1.2c0.6,4.8,0.2,9.3-1.6,13.7c-2,5-5,9.5-8.7,13.5c-3.4,3.7-7,7.3-10.6,10.9c-6,5.8-12,11.6-18.1,17.4
			c-5,4.7-10.1,9.4-15.1,14c-4.9,4.5-9.8,9.1-14.7,13.5c-0.7,0.6-1,1.2-1,2.1c0,7.7,0,15.3,0,23c0,0.5,0.1,1.1,0.1,1.6
			c19.1,0,38,0,57,0c6.8,0,13.5,0,20.3,0c6.5,0,13,0,19.5,0c0-8.5,0-16.9,0-25.5c-2.6,0-5.2,0-7.8,0c-6,0-12,0-18,0
			c-10.9,0-21.7,0-32.4,0c0.4-0.6,0.8-1.6,1.5-2.2C217.6,173.7,221.7,170.1,225.8,166.5z"/>
	</g>
</g>
</svg>
