<svg xmlns="http://www.w3.org/2000/svg" width="52.5" height="74.302" viewBox="0 0 52.5 74.302">
  <g id="Group_8" data-name="Group 8" transform="translate(-209.433 -130.297)">
    <path id="Path_8" data-name="Path 8" d="M303.52,327.123q.409-.336.833-.655l-.264.1Q303.8,326.84,303.52,327.123Z" transform="translate(-81.126 -169.149)" fill="none"/>
    <path id="Path_9" data-name="Path 9" d="M406.331,264.771c-.079.066-.16.13-.24.195a26.676,26.676,0,0,0,2.554-1.538,1.5,1.5,0,0,1-.362-.061A14.353,14.353,0,0,1,406.331,264.771Z" transform="translate(-169.569 -114.74)" fill="none"/>
    <path id="Path_10" data-name="Path 10" d="M397.457,391.517a1.876,1.876,0,0,1,.281-.024q-.157-.071-.316-.139A1.329,1.329,0,0,1,397.457,391.517Z" transform="translate(-162.094 -225.097)" fill="none"/>
    <path id="Path_11" data-name="Path 11" d="M298.5,245.9q.25-.456.537-.889-.5.687-.94,1.419C298.229,246.245,298.362,246.067,298.5,245.9Z" transform="translate(-76.454 -98.908)" fill="none"/>
    <path id="Path_12" data-name="Path 12" d="M341.559,526.177q-.325-.347-.623-.717.314.534.678,1.042Q341.579,526.341,341.559,526.177Z" transform="translate(-113.388 -340.73)" fill="none"/>
    <path id="Path_13" data-name="Path 13" d="M269.777,166.21c-.9-7.131-3.5-13.053-7.531-17.129a22.952,22.952,0,0,0-31.517,0c-4.027,4.075-6.631,10-7.53,17.125q-.081.625-.174,1.309c-.729,5.424-1.831,13.622-.261,23.308l0,.028c1.082,8.383,3.653,14.247,7.862,17.929,3.761,3.29,8.948,4.889,15.858,4.889s12.1-1.6,15.858-4.889c4.209-3.681,6.781-9.546,7.862-17.929l0-.028c1.57-9.686.468-17.884-.261-23.308Q269.859,166.831,269.777,166.21ZM255.768,169.7a5.162,5.162,0,0,1,.84,1.507,3.57,3.57,0,0,1,.467-.457,4.369,4.369,0,0,1,3.183-.995,2.545,2.545,0,0,1,1.834,1.118,3.589,3.589,0,0,1,.572,1.93,5.158,5.158,0,0,1-1.752,3.479,12.914,12.914,0,0,1-3.489,2.386,10.948,10.948,0,0,1-1.889.75c-.621.162-1.456.408-1.948-.145-.207-.233-3.008-4.2-3.007-7.052a3.816,3.816,0,0,1,1.48-3.4A2.8,2.8,0,0,1,255.768,169.7Zm-5.379-2.975a5.955,5.955,0,0,1-7.912-.519c-.146-.142,0-.428.206-.355,1.435.513,2.758,1.258,4.34,1.135a4.644,4.644,0,0,0,3-1.525,11.724,11.724,0,0,0,2.055-3.235c.54-1.18.8-2.641,1.64-3.641.223-.265.577-.02.6.253a5.066,5.066,0,0,1-.493,2.291,21.324,21.324,0,0,1-.936,2.2A10.383,10.383,0,0,1,250.39,166.721Zm-23.159,15.725a12.654,12.654,0,0,1,1.053-7.469,15.054,15.054,0,0,1,.841-1.6.923.923,0,0,1-.749-1.029c.019-.318.049-.635.086-.95a.426.426,0,0,1-.726-.091,11.285,11.285,0,0,1,.056-4.963,26.287,26.287,0,0,1,1.359-5.027,21.564,21.564,0,0,1,5.665-8.522,18.121,18.121,0,0,1,16.685-3.7c1.089.277,2.767.869,2.775,1.535a1.074,1.074,0,0,1,.294.453,4.671,4.671,0,0,1,.147.552c0-.07,0-.141,0-.212-.009-.3.451-.3.506-.028a7.956,7.956,0,0,1-1.783,6.5c-3.972,5.024-10.5,6.754-15.8,9.95a20.863,20.863,0,0,0-6.483,5.66,14,14,0,0,0-1.341,2.364,4.745,4.745,0,0,1,2.6.406c.883.417,4.188,2.152,5.169,2.184a10.5,10.5,0,0,0,2-.1,12.325,12.325,0,0,0,1.684-.376,8.136,8.136,0,0,0,1.563-.735c.041-.031.216-.151.223-.156.111-.086.222-.171.327-.265a3.634,3.634,0,0,1,.712-.588c-.248-.1-.495-.208-.738-.321a6.765,6.765,0,0,1-3.838-4.277,4,4,0,0,1,2.252-4.773c.227-.079.528.157.344.394a5.363,5.363,0,0,0-1.526,2.7,4.092,4.092,0,0,0,.637,2.519c1.1,1.758,2.889,2.33,4.7,3.069a9.42,9.42,0,0,1,4.2,2.71,5.712,5.712,0,0,1,.938,4.347,8.835,8.835,0,0,1,8.712,3.783,8.583,8.583,0,0,1,1.685,5.091c-.049,1.751-.771,3.937-2.387,4.838-.016.009-.032.015-.048.022a13.788,13.788,0,0,1-1.194,1.609,14.167,14.167,0,0,1-4.217,3.408,21.669,21.669,0,0,0,2.261-.547c.6-.216,1.22-.056,1.291.213.144.551-.36.765-.949,1.025a22.815,22.815,0,0,1-2.992.893,16.343,16.343,0,0,1-8.083-.155,14.08,14.08,0,0,1-7.812-6.343,23.925,23.925,0,0,1-2.738-9.188,20.928,20.928,0,0,0-.937-4.48,8.463,8.463,0,0,0-2.651-3.541.26.26,0,0,1,.259-.444,4.833,4.833,0,0,1-.473-.526c-.493-.345-1.013-.68-1.474-1.074-.023.075-.049.149-.071.224a46.662,46.662,0,0,0-.86,4.971A.587.587,0,0,1,227.231,182.446Zm5.171-.946c-.03,0-.027-.047,0-.047S232.432,181.5,232.4,181.5Zm29.369,19.879a12.118,12.118,0,0,1-2.957,2.7,15.652,15.652,0,0,1-1.644.979,20.279,20.279,0,0,1-4.083,1.708c-6.237,1.842-13.321,1.06-18.272-3.423a21.563,21.563,0,0,1-5.665-8.521,26.286,26.286,0,0,1-1.359-5.027,11.284,11.284,0,0,1-.056-4.963.427.427,0,0,1,.784.011,31.436,31.436,0,0,1,.843,4.57,28.959,28.959,0,0,0,1.186,4.405,20.181,20.181,0,0,0,4.729,7.6,15.312,15.312,0,0,0,8.439,4.265,20.116,20.116,0,0,0,9.405-.919c1.109-.383,2.417-.892,3.546-1.391a8.686,8.686,0,0,0,1.365-.838,11.574,11.574,0,0,0,2.056-1.9,5.726,5.726,0,0,0,1.327-2.478,9.454,9.454,0,0,0-.216-3.093c-.029-.29.31-.627.591-.39C263.806,196.371,263.21,199.535,261.771,201.379Z" transform="translate(-10.805 -10.795)" fill="none"/>
    <path id="Path_14" data-name="Path 14" d="M395.618,568.7q-.668-.057-1.328-.173a12.389,12.389,0,0,0,1.569.324Q395.737,568.782,395.618,568.7Z" transform="translate(-159.393 -377.868)" fill="none"/>
    <path id="Path_15" data-name="Path 15" d="M273.312,215.474q.279-.283.569-.556l.264-.1a44.589,44.589,0,0,1,7.816-4.476c1.651-.778,3.6-1.612,5.48-2.617.08-.065.161-.129.241-.195a14.35,14.35,0,0,0,1.951-1.4,1.5,1.5,0,0,0,.362.061c2.746-1.893,4.86-4.356,4.835-7.851a4.684,4.684,0,0,0-.147-.552,1.075,1.075,0,0,0-.294-.453.423.423,0,0,1-.048.2c-.283.559-2.587-.075-3.3-.174a25.822,25.822,0,0,0-7.212-.2,15.312,15.312,0,0,0-8.439,4.265,16.594,16.594,0,0,0-1.885,2.174q-.286.432-.537.889c-.142.172-.275.35-.4.529a23.7,23.7,0,0,0-1.9,4.008,28.957,28.957,0,0,0-1.186,4.405,31.432,31.432,0,0,1-.843,4.57.354.354,0,0,1-.058.1c-.037.315-.067.632-.086.95a.923.923,0,0,0,.749,1.029A18.041,18.041,0,0,1,273.312,215.474Z" transform="translate(-50.919 -57.5)" fill="#ffd4b8"/>
    <path id="Path_16" data-name="Path 16" d="M276.823,384.857a4.833,4.833,0,0,0,.473.527h0c1.774.562,2.94,2.436,3.544,4.1a30.234,30.234,0,0,1,1.227,5.657,19.859,19.859,0,0,0,2.313,6.982q.3.369.623.717.02.163.055.325a12.815,12.815,0,0,0,.812,1.018,12.65,12.65,0,0,0,4.143,3.259,11.985,11.985,0,0,0,1.717.614q.659.117,1.328.173.119.078.241.151a12.5,12.5,0,0,0,1.772.121,25.739,25.739,0,0,0,4.575-.55,14.165,14.165,0,0,0,4.217-3.408,13.783,13.783,0,0,0,1.194-1.609c-.47.211-.824-.373-.611-.776a19.655,19.655,0,0,0,1.291-2.211,5.727,5.727,0,0,0,.379-2.132,7.272,7.272,0,0,0-1.426-4.063c-1.85-2.514-5.039-4.127-8.147-3.074a.667.667,0,0,1-.912-.807c.478-1.888.305-3.822-1.354-5.055a9.623,9.623,0,0,0-1.8-1.028,1.867,1.867,0,0,0-.281.024,1.338,1.338,0,0,0-.035-.164c-.671-.288-1.359-.54-2.038-.82a3.636,3.636,0,0,0-.712.588c-.1.094-.216.18-.327.265-.007.005-.182.126-.223.156a8.135,8.135,0,0,1-1.563.735,12.326,12.326,0,0,1-1.684.376,10.5,10.5,0,0,1-2,.1c-.982-.033-4.287-1.767-5.169-2.184a4.745,4.745,0,0,0-2.6-.406,12.57,12.57,0,0,0-.5,1.323C275.81,384.177,276.33,384.512,276.823,384.857Z" transform="translate(-56.836 -217.39)" fill="#a0ddd8"/>
    <path id="Path_17" data-name="Path 17" d="M431.175,329.149a3.816,3.816,0,0,0-1.48,3.4c0,2.852,2.8,6.819,3.007,7.052.491.553,1.327.307,1.948.145a10.952,10.952,0,0,0,1.889-.75,12.913,12.913,0,0,0,3.489-2.386,5.158,5.158,0,0,0,1.752-3.479,3.589,3.589,0,0,0-.572-1.93,2.545,2.545,0,0,0-1.834-1.118,4.369,4.369,0,0,0-3.183.995,3.57,3.57,0,0,0-.467.457,5.159,5.159,0,0,0-.84-1.507A2.8,2.8,0,0,0,431.175,329.149Z" transform="translate(-189.921 -171.129)" fill="#ffbcb0"/>
    <path id="Path_18" data-name="Path 18" d="M260.856,156.491c-.061-.454-.119-.887-.172-1.3-.948-7.508-3.719-13.774-8.014-18.121a24.674,24.674,0,0,0-33.971,0c-4.3,4.348-7.067,10.614-8.014,18.118q-.08.617-.173,1.3c-.742,5.523-1.864,13.868-.257,23.8,1.139,8.812,3.9,15.024,8.435,18.993,4.089,3.577,9.648,5.315,16.994,5.315s12.9-1.739,16.994-5.315c4.537-3.969,7.3-10.181,8.435-18.993C262.72,170.359,261.6,162.013,260.856,156.491Zm-1.448,23.538,0,.028c-1.082,8.383-3.653,14.247-7.862,17.929-3.761,3.29-8.948,4.889-15.858,4.889s-12.1-1.6-15.858-4.889c-4.209-3.681-6.78-9.546-7.862-17.929l0-.028c-1.57-9.686-.468-17.884.261-23.308q.092-.685.174-1.309c.9-7.128,3.5-13.05,7.53-17.125a22.952,22.952,0,0,1,31.517,0c4.027,4.075,6.631,10,7.531,17.129q.081.62.174,1.306C259.876,162.145,260.978,170.343,259.408,180.029Z" fill="#7f6775"/>
    <path id="Path_19" data-name="Path 19" d="M260.1,234.808a46.67,46.67,0,0,1,.86-4.971c.022-.075.048-.149.071-.224a12.558,12.558,0,0,1,.5-1.323,14.008,14.008,0,0,1,1.341-2.364,20.864,20.864,0,0,1,6.483-5.66c5.3-3.2,11.824-4.926,15.8-9.95a7.956,7.956,0,0,0,1.783-6.5c-.055-.275-.515-.269-.506.028,0,.071,0,.142,0,.212.026,3.495-2.088,5.957-4.835,7.851a26.671,26.671,0,0,1-2.554,1.538c-1.878,1-3.829,1.839-5.48,2.617a44.583,44.583,0,0,0-7.816,4.476q-.424.319-.833.655a18.039,18.039,0,0,0-4.074,4.606,15.054,15.054,0,0,0-.841,1.6,12.655,12.655,0,0,0-1.053,7.469A.587.587,0,0,0,260.1,234.808Z" transform="translate(-42.522 -63.221)" fill="#7f6775"/>
    <path id="Path_20" data-name="Path 20" d="M303.259,426.865a12.379,12.379,0,0,1-1.569-.324,11.989,11.989,0,0,1-1.717-.614,12.65,12.65,0,0,1-4.143-3.259,12.834,12.834,0,0,1-.812-1.018q-.365-.507-.678-1.042a19.86,19.86,0,0,1-2.313-6.982,30.237,30.237,0,0,0-1.227-5.657c-.6-1.661-1.77-3.535-3.544-4.1h0a.26.26,0,0,0-.259.444,8.463,8.463,0,0,1,2.651,3.541,20.928,20.928,0,0,1,.937,4.48,23.925,23.925,0,0,0,2.738,9.188,14.08,14.08,0,0,0,7.812,6.343,16.342,16.342,0,0,0,8.083.155,22.813,22.813,0,0,0,2.992-.893c.589-.26,1.093-.474.949-1.025-.071-.27-.692-.429-1.291-.213a21.677,21.677,0,0,1-2.261.547,25.741,25.741,0,0,1-4.575.55A12.5,12.5,0,0,1,303.259,426.865Z" transform="translate(-66.793 -235.878)" fill="#7f6775"/>
    <path id="Path_21" data-name="Path 21" d="M263.841,202.085a28.966,28.966,0,0,1,1.186-4.405,23.7,23.7,0,0,1,1.9-4.008q.439-.73.94-1.419a16.6,16.6,0,0,1,1.885-2.174,15.312,15.312,0,0,1,8.439-4.265,25.822,25.822,0,0,1,7.212.2c.711.1,3.015.733,3.3.174a.423.423,0,0,0,.048-.2c-.008-.666-1.686-1.259-2.775-1.535a18.121,18.121,0,0,0-16.685,3.7,21.564,21.564,0,0,0-5.665,8.522,26.288,26.288,0,0,0-1.359,5.027,11.285,11.285,0,0,0-.056,4.963.426.426,0,0,0,.727.091.355.355,0,0,0,.058-.1A31.441,31.441,0,0,0,263.841,202.085Z" transform="translate(-45.284 -46.156)" fill="#7f6775"/>
    <path id="Path_22" data-name="Path 22" d="M381.863,259.089a5.066,5.066,0,0,0,.493-2.291c-.028-.274-.382-.518-.6-.253-.84,1-1.1,2.461-1.64,3.641a11.724,11.724,0,0,1-2.055,3.235,4.644,4.644,0,0,1-3,1.525c-1.583.123-2.905-.622-4.34-1.135-.205-.073-.351.213-.206.355a5.955,5.955,0,0,0,7.912.519,10.383,10.383,0,0,0,2.5-3.394A21.327,21.327,0,0,0,381.863,259.089Z" transform="translate(-138.842 -108.759)" fill="#7f6775"/>
    <path id="Path_23" data-name="Path 23" d="M297.608,423.351c.03,0,.034-.047,0-.047S297.578,423.351,297.608,423.351Z" transform="translate(-76.011 -252.646)" fill="#7f6775"/>
    <path id="Path_24" data-name="Path 24" d="M355.525,327.6a9.623,9.623,0,0,1,1.8,1.028c1.659,1.233,1.832,3.166,1.354,5.055a.667.667,0,0,0,.912.807c3.107-1.053,6.3.56,8.147,3.074a7.272,7.272,0,0,1,1.426,4.063,5.727,5.727,0,0,1-.379,2.132,19.64,19.64,0,0,1-1.291,2.211c-.212.4.142.987.611.776.016-.007.032-.013.048-.022,1.616-.9,2.338-3.087,2.387-4.838a8.583,8.583,0,0,0-1.685-5.091,8.835,8.835,0,0,0-8.712-3.783,5.711,5.711,0,0,0-.938-4.347,9.42,9.42,0,0,0-4.2-2.71c-1.813-.739-3.6-1.311-4.7-3.069a4.093,4.093,0,0,1-.637-2.519,5.364,5.364,0,0,1,1.526-2.7c.183-.237-.117-.474-.344-.394a4,4,0,0,0-2.252,4.773,6.765,6.765,0,0,0,3.838,4.277c.244.113.491.219.738.321.679.28,1.367.532,2.038.82Q355.368,327.533,355.525,327.6Z" transform="translate(-119.881 -161.208)" fill="#7f6775"/>
    <path id="Path_25" data-name="Path 25" d="M296.27,456.065c-.281-.237-.619.1-.591.39a9.453,9.453,0,0,1,.216,3.093,5.726,5.726,0,0,1-1.327,2.479,11.579,11.579,0,0,1-2.056,1.9,8.691,8.691,0,0,1-1.365.839c-1.129.5-2.438,1.008-3.546,1.391a20.116,20.116,0,0,1-9.405.919,15.312,15.312,0,0,1-8.439-4.265,20.181,20.181,0,0,1-4.729-7.6,28.967,28.967,0,0,1-1.186-4.405,31.44,31.44,0,0,0-.843-4.57.427.427,0,0,0-.784-.011,11.285,11.285,0,0,0,.056,4.963,26.286,26.286,0,0,0,1.359,5.027,21.562,21.562,0,0,0,5.665,8.521c4.951,4.482,12.036,5.265,18.272,3.423a20.278,20.278,0,0,0,4.083-1.708,15.636,15.636,0,0,0,1.644-.979,12.116,12.116,0,0,0,2.957-2.7C297.689,460.934,298.285,457.769,296.27,456.065Z" transform="translate(-45.284 -272.194)" fill="#7f6775"/>
  </g>
</svg>
