<svg xmlns="http://www.w3.org/2000/svg" width="59.333" height="72.866" viewBox="0 0 59.333 72.866">
  <g id="recipe_ico" transform="translate(-363.602 -560.476)">
    <g id="Group_2826" data-name="Group 2826" transform="translate(369.801 609.057)">
      <path id="Path_7000" data-name="Path 7000" d="M425.928,649.509c1.531-.83,11.926-6.581,11.926-6.581l-.008-.06-.038-.04-10.184,4.128a.175.175,0,0,1-.231-.085.171.171,0,0,1,.084-.229l9.678-5.2v-.063l-.047-.044-10.192,4.093s-.16.071-.227-.07.091-.222.091-.222l9.685-5.175-.005-.061-.043-.046-10.2,4.074a.173.173,0,0,1-.228-.084.181.181,0,0,1,.081-.233l9.71-5.146-.007-.057-.039-.043s-11.087,4.266-12.708,4.907a.291.291,0,0,0-.191.339,4.407,4.407,0,0,1-1.394,3.4c-1.405,1.574-22.867,9.745-27.554,11.434a4.491,4.491,0,0,0-2.85,3.542h0a4.5,4.5,0,0,0,4.544.091c4.307-2.5,24.359-13.695,26.469-13.759a4.406,4.406,0,0,1,3.5,1.118A.291.291,0,0,0,425.928,649.509Zm-31.731,9.21a6.2,6.2,0,0,1,1.234-.357,10.84,10.84,0,0,0-2.186,1.066,5.782,5.782,0,0,0-1.847,2.357A4.437,4.437,0,0,1,394.2,658.719Zm31.38-9.535a4.2,4.2,0,0,0-3.436-1.148,5.052,5.052,0,0,1,3,.522c.221.112.716.4,1.087.28.409-.137,1.081-.455,2.693-1.234-1.4.785-2.525,1.416-2.957,1.652A.294.294,0,0,1,425.577,649.185Z" transform="translate(-391.031 -638.365)" fill="#a1a1a1"/>
      <path id="Path_7001" data-name="Path 7001" d="M435.732,658.776c-2.4-.865-12.056-4.738-20.891-8.725-8.619-4.825-18.7-8.824-20.224-9.663-1.644-.9-2.535.354-.961,2.524,2.6,3.579,13.085,9.343,19.774,9.451.15.022.215.02.353.051,2.892.648,16.145,7.606,20.256,10a4.5,4.5,0,0,0,4.543-.091v0A4.492,4.492,0,0,0,435.732,658.776Zm-40.995-15.1a2.985,2.985,0,0,1-.653-.675c-1.036-1.326-1.183-2.233-.739-2.618a1.871,1.871,0,0,0,.275,1.715A9.876,9.876,0,0,0,394.738,643.678Zm19.613,8.379a.443.443,0,0,1-.593.167.68.68,0,0,0,.333-.32l.723-1.546a.15.15,0,1,1,.268.132Zm23.815,10.008a5.762,5.762,0,0,0-1.846-2.359,10.887,10.887,0,0,0-2.185-1.065,6.209,6.209,0,0,1,1.232.358A4.432,4.432,0,0,1,438.166,662.065Z" transform="translate(-391.649 -638.957)" fill="#a1a1a1"/>
    </g>
    <path id="Path_7002" data-name="Path 7002" d="M428.6,567.024a12.286,12.286,0,0,0-6.664,1.956,14.88,14.88,0,0,0-21.331,0,12.337,12.337,0,1,0-4.827,22.585v14.791h30.987V591.565a12.339,12.339,0,1,0,1.835-24.541Z" transform="translate(-18 -4)" fill="#dedede"/>
  </g>
</svg>
