<svg xmlns="http://www.w3.org/2000/svg" width="37.708" height="37.708" viewBox="0 0 37.708 37.708">
  <g id="whatsapp" transform="translate(0.354 0.354)">
    <circle id="Oval_Copy" data-name="Oval Copy" cx="18.5" cy="18.5" r="18.5" fill="none" stroke="#e5e5e5" stroke-miterlimit="10" stroke-width="0.708"/>
    <path id="Path_7" data-name="Path 7" d="M381.106,327.725a.688.688,0,0,0-.246.046l-21.285,8.087a.686.686,0,0,0,.024,1.291l4.935,1.668,2.976,5.956,0,0,.008.016h0a.323.323,0,0,0,.286.181.314.314,0,0,0,.2-.077l2.788-2.364-3.113-2.362.244,3.1-2.238-4.633,11.894-7.144-9.9,8.674,7.706,5.848a1.387,1.387,0,0,0,.844.286,1.4,1.4,0,0,0,1.364-1.063l4.166-16.664A.687.687,0,0,0,381.106,327.725Z" transform="translate(-354.132 -317.225)" fill="#8d8d8d"/>
  </g>
</svg>
