<svg xmlns="http://www.w3.org/2000/svg" width="37.708" height="37.708" viewBox="0 0 37.708 37.708">
  <g id="whatsapp" transform="translate(0.354 0.354)">
    <circle id="Oval_Copy" data-name="Oval Copy" cx="18.5" cy="18.5" r="18.5" fill="none" stroke="#e5e5e5" stroke-miterlimit="10" stroke-width="0.708"/>
    <g id="Group_3" data-name="Group 3" transform="translate(8.992 8.325)">
      <path id="Path_4" data-name="Path 4" d="M28.224,20.531A9.881,9.881,0,0,0,18.6,12.909a13.952,13.952,0,0,0-1.89.194A9.854,9.854,0,0,0,9.95,27.48a.643.643,0,0,1,.085.488c-.457,1.518-.883,3.068-1.294,4.594-.062.263-.062.263.186.2,1.6-.442,3.184-.852,4.787-1.247a.417.417,0,0,1,.349.023,9.875,9.875,0,0,0,14.16-11.007ZM19.982,30.873a4.826,4.826,0,0,1-1.139.093,8.578,8.578,0,0,1-4.454-1.139.507.507,0,0,0-.5-.077c-.891.209-1.758.457-2.641.682-.186.054-.2.015-.163-.163.232-.813.457-1.642.713-2.494a.616.616,0,0,0-.1-.581,8.161,8.161,0,0,1,.287-9.2,7.811,7.811,0,0,1,8.35-3.215A7.731,7.731,0,0,1,26.6,21,8.14,8.14,0,0,1,19.982,30.873Z" transform="translate(-8.708 -12.909)" fill="#8d8d8d" fill-rule="evenodd"/>
      <path id="Path_5" data-name="Path 5" d="M16.909,22.882a2.569,2.569,0,0,1-1.023-.132,10.007,10.007,0,0,1-5.337-3.92A5.582,5.582,0,0,1,9.4,16.5a2.677,2.677,0,0,1,.883-2.634,1.486,1.486,0,0,1,1.317-.194,1.007,1.007,0,0,1,.225.256c.279.7.573,1.356.86,2.022a.562.562,0,0,1-.039.418,4.194,4.194,0,0,1-.612.821.361.361,0,0,0-.054.534,6.563,6.563,0,0,0,3.37,2.9.384.384,0,0,0,.5-.116c.256-.294.5-.62.736-.93a.416.416,0,0,1,.55-.124c.488.209.961.434,1.425.651.124.07.217.108.333.163.488.24.488.271.426.8-.062,1.03-.852,1.549-1.758,1.8A1.581,1.581,0,0,1,16.909,22.882Z" transform="translate(-4.442 -8.311)" fill="#8d8d8d" fill-rule="evenodd"/>
    </g>
  </g>
</svg>
