<svg xmlns="http://www.w3.org/2000/svg" width="70.333" height="59.157" viewBox="0 0 70.333 59.157">
  <g id="fit_ico" transform="translate(-324.374 -245.921)">
    <path id="Path_28" data-name="Path 28" d="M394.707,245.961a.926.926,0,0,0-1.851,0c-.2,7.617-3.881,11.338-11.224,11.984-7.293.643-19.819,2.338-21.15-7.37a.788.788,0,0,0-.186-.416c.143-1.773.076-3.594.086-5.245a.926.926,0,0,0-1.851,0c-.019,3.188.459,7.7-1.952,10.135-2.861,2.891-8.522,3.456-12.376,3.574-3.532.109-8.292.316-11.456-1.3-4.067-2.073-6.307-6.915-6.523-11.249-.058-1.186-1.909-1.192-1.85,0a15.733,15.733,0,0,0,5.287,11.259c1.386,4.322,1.807,8.765,2.848,13.161.929,3.925,2.385,7.592,2.819,11.629a56.542,56.542,0,0,1,.356,10.4c-.264,3.319-1.58,6.46-1.976,9.766-.141,1.18,1.71,1.17,1.851,0,.413-3.454,1.808-6.7,2-10.189a63.018,63.018,0,0,0-.511-11.152,68.556,68.556,0,0,0-2.337-9.336c-1.129-4.173-1.579-8.457-2.649-12.63,3.6,1.788,8.292,1.6,12.144,1.484,4.459-.138,10.363-.827,13.685-4.117A7.262,7.262,0,0,0,359.5,253.9c3.363,7.848,15.276,6.584,22.8,5.835a17.435,17.435,0,0,0,5.1-1.243c-1.256,3.241-1.624,6.636-2.292,10.14-.749,3.938-2.347,7.655-2.922,11.627a63.509,63.509,0,0,0-.611,11.362c.138,3.665,1.528,7.053,1.952,10.671.138,1.168,1.989,1.183,1.851,0-.37-3.165-1.572-6.177-1.9-9.343a52.731,52.731,0,0,1,.336-10.827c.4-3.743,1.694-7.137,2.592-10.765,1.2-4.858,1.178-9.833,3.686-14.3a.859.859,0,0,0,.069-.212Q394.52,253.363,394.707,245.961Z" transform="translate(0 1.9)" fill="#70390f"/>
    <path id="Path_29" data-name="Path 29" d="M371.105,263.689c-1.621,2.845-13.644,2.3-15.063-.451a.889.889,0,0,0-.191-.236,23.285,23.285,0,0,0,.04-5.914c-.068-1.183-1.919-1.191-1.85,0,.231,4.024,1.089,7.708-4.277,8.2-3.2.293-8.318,1.122-10.765-1.353a.926.926,0,0,0-1.309,1.309c3.22,3.254,9.666,2.488,13.761,1.693a5.429,5.429,0,0,0,3.56-1.984c1.12,1.289,2.965,1.8,5.137,2.053,1.036.122,2.389.122,3.492.143,2.825.052,7.421.358,9.065-2.525A.926.926,0,0,0,371.105,263.689Z" transform="translate(4.276 5.891)" fill="#70390f"/>
    <path id="Path_30" data-name="Path 30" d="M353.138,272.886c-.692,1.134-2.511,1.571-3.7,1.645-3.07.191-8.1.632-8.287-3.625-.05-1.187-1.9-1.194-1.85,0,.084,1.96.422,3.766,2.341,4.667,2.394,1.125,5.241.967,7.8.807,1.855-.115,3.975-.053,5.049-1.851.007-.013.012-.028.019-.041a3.387,3.387,0,0,0,1.259,1.05c2.111,1.061,4.974.908,7.258.971,3.722.1,6.372-1.469,6.936-5.389.167-1.164-1.616-1.668-1.784-.491-.455,3.161-2.336,4.1-5.152,4.03-2.982-.078-6.6.406-7.748-3.037l-.005-.009a26.6,26.6,0,0,0-.028-3.539c-.065-1.184-1.916-1.191-1.851,0a19.854,19.854,0,0,1,.005,2.8A5.968,5.968,0,0,1,353.138,272.886Z" transform="translate(4.892 9.492)" fill="#70390f"/>
    <path id="Path_31" data-name="Path 31" d="M369.973,252.861a.926.926,0,0,0,0-1.851A.926.926,0,0,0,369.973,252.861Z" transform="translate(14.653 4.191)" fill="#333"/>
    <path id="Path_32" data-name="Path 32" d="M332.309,252.861a.926.926,0,0,0,0-1.851A.926.926,0,0,0,332.309,252.861Z" transform="translate(2.308 4.191)" fill="#333"/>
    <path id="Path_33" data-name="Path 33" d="M368.076,280.367c-.024,1.846-.036,3.007-1.964,3.549a9.548,9.548,0,0,1-3,.191c-2.77-.1-6.943.562-7.6-3.05a29.466,29.466,0,0,0-.069-3.933c-.039-1.187-1.888-1.192-1.851,0,.052,1.628.256,3.1-.45,4.593-.657,1.394-1.839,1.608-3.3,1.85a23.466,23.466,0,0,1-4.857.175c-2.632-.125-3.1-1.34-3.471-3.621-.193-1.172-1.976-.674-1.785.493.281,1.721.559,3.6,2.261,4.449,2.132,1.069,5.569.692,7.828.364,1.5-.216,3.623-.583,4.716-1.8,1.781,2.5,5.773,2.228,8.832,2.354a10.18,10.18,0,0,0,4.878-.758c1.751-.963,1.653-3.084,1.676-4.858A.925.925,0,0,0,368.076,280.367Z" transform="translate(5.03 12.458)" fill="#70390f"/>
  </g>
</svg>
